<?xml version="1.0" encoding="UTF-8"?>
<svg id="Layer_1" data-name="Layer 1" xmlns="http://www.w3.org/2000/svg" viewBox="0 0 666.67 666.67">
  <defs>
    <style>
      .cls-1 {
        fill: #0023ff;
        stroke-width: 0px;
      }
    </style>
  </defs>
  <path class="cls-1" d="m333.33,0C149.24,0,0,149.24,0,333.33s149.24,333.33,333.33,333.33,333.33-149.24,333.33-333.33S517.43,0,333.33,0Zm189.2,274.57l-200,183.33c-13.16,12.06-33.48,11.62-46.1-1l-100-100c-13.24-12.79-13.61-33.89-.82-47.13,12.79-13.24,33.89-13.61,47.13-.82.28.27.55.54.82.82l77.43,77.43,176.47-161.77c13.57-12.44,34.66-11.53,47.1,2.03,12.44,13.57,11.53,34.66-2.03,47.1Z"/>
</svg>